<svg width="176" height="176" viewBox="0 0 176 176" fill="none" xmlns="http://www.w3.org/2000/svg">
<g clip-path="url(#clip0_105_7940)">
<rect y="42" width="176" height="134" fill="#EC1C24"/>
<rect width="176" height="42" fill="black"/>
<path fill-rule="evenodd" clip-rule="evenodd" d="M93.7782 80.4766H89.5026L87.0906 84.4013H91.3638L93.7782 80.4766Z" fill="white"/>
<path fill-rule="evenodd" clip-rule="evenodd" d="M119.369 72.5664C119.369 72.5664 116.698 73.6344 113.595 77.0694C110.48 80.517 108.684 84.3728 110.023 85.396C110.535 85.7868 111.718 85.8523 113.874 83.9084C115.555 82.3932 117.264 80.409 118.423 77.5695C119.813 74.1643 119.37 72.6066 119.369 72.5664ZM136.37 78.7398C132.918 76.9659 130.399 74.7978 127.772 73.4458C125.265 72.1548 123.647 71.6203 121.625 71.8904C121.29 71.9352 120.789 72.0985 120.789 72.0985C120.789 72.0985 121.835 75.6703 117.691 81.677C113.492 87.7618 109.68 87.7308 108.597 86.0489C107.462 84.2854 108.923 80.6849 111.37 77.4855C113.931 74.1367 118.431 71.3547 118.431 71.3547C118.431 71.3547 116.995 70.4764 113.47 72.4825C110.036 74.4356 104.106 79.0858 98.6283 86.9284C93.1502 94.771 92.0541 99.0866 91.2627 102.485C90.4713 105.882 91.1963 109.516 94.9507 109.516C98.7062 109.516 103.068 103.769 104.298 101.769C106.585 98.0485 108.077 92.343 104.962 93.1282C103.426 93.5168 102.183 95.2262 101.401 96.8667C100.596 98.5543 100.273 100.168 100.273 100.168C100.273 100.168 98.9754 100.634 97.2333 101.943C95.4901 103.254 94.3528 104.505 94.3528 104.505C94.3528 104.505 94.362 101.792 96.5175 97.3967C98.673 93.0017 102.63 90.9899 104.87 90.8048C106.891 90.637 109.518 92.3591 107.295 98.7153C105.072 105.07 98.5046 112.778 91.6006 112.88C85.2302 112.973 81.0544 104.81 89.9158 90.568C99.7164 74.815 111.235 69.9798 114.973 69.4395C118.712 68.898 119.925 70.5546 119.925 70.5546C119.925 70.5546 123.057 69.1015 127.031 69.3716C131.596 69.682 135.129 72.9228 139.783 75.1978C138.566 76.3819 137.41 77.597 136.37 78.7398ZM156.872 73.4286C153.712 75.4691 149.332 77.3165 145.128 76.9096C144.065 78.0178 142.925 79.2939 141.781 80.6906C149.078 82.1357 155.461 77.5982 158.859 73.7332C160.978 71.3214 162.025 69.1693 162.025 69.1693C162.025 69.1693 160.001 71.4076 156.872 73.4286ZM147.172 94.0617C147.265 93.8996 147.306 93.757 147.306 93.757C147.306 93.757 147.224 93.1408 146.638 93.1155C145.944 93.0834 144.994 93.2156 142.513 95.9769C140.041 98.7268 138.537 101.116 137.236 103.505C135.814 106.115 135.241 108.059 136.058 108.558C136.289 108.698 136.637 108.715 136.917 108.647C137.473 108.511 138.098 107.995 139.055 106.884C139.503 106.366 139.999 105.628 140.593 104.812C142.226 102.564 146.353 95.4872 147.172 94.0617ZM121.36 97.0794C121.775 95.9896 122.3 93.8524 121.199 93.0167C120.021 92.1211 117.015 94.2169 116.999 96.3586C116.983 98.5543 119.117 99.5441 119.634 99.6844C119.925 99.7637 120.027 99.7522 120.167 99.5154C120.259 99.3613 120.945 98.1692 121.36 97.0794ZM119.09 101.072C119.012 101.043 118.037 100.596 117.025 99.7488C116.016 98.905 115.505 97.9335 115.466 97.86C115.426 97.7864 115.381 97.8427 115.336 97.9048C115.292 97.9669 115.108 98.1267 113.503 100.494C111.898 102.861 109.443 107.74 111.674 108.567C113.101 109.097 115.476 106.591 116.773 104.927C117.976 103.382 119.101 101.416 119.163 101.274C119.225 101.134 119.169 101.1 119.09 101.072ZM144.365 106.699C143.759 107.674 143.074 109.533 145.073 108.372C147.505 106.959 150.972 101.679 150.972 101.679H152.538C152.538 101.679 150.472 104.96 147.778 107.956C145.311 110.699 142.303 113.193 140.183 112.947C137.708 112.66 138.482 109.397 138.482 109.397C138.482 109.397 134.93 113.184 132.488 112.913C129.18 112.547 130.186 108.44 130.186 108.44C130.186 108.44 126.447 113.06 123.899 112.913C119.899 112.683 120.902 107.786 122.013 104.361C122.609 102.525 123.16 101.077 123.16 101.077C123.16 101.077 122.762 101.182 121.912 101.306C121.467 101.372 120.655 101.416 120.655 101.416C120.655 101.416 118.993 104.367 117.664 106.142C116.333 107.917 110.674 114.022 107.341 112.801C104.263 111.674 105.277 106.938 107.071 103.177C109.685 97.6944 117.039 89.8127 121.284 90.8451C125.682 91.9142 121.387 99.9752 121.387 99.9752C121.387 99.9752 121.391 100.005 121.435 100.022C121.522 100.057 121.75 100.079 122.283 99.9775C123.128 99.8166 123.892 99.4947 123.892 99.4947C123.892 99.4947 128.311 90.1956 133.194 84.1107C138.078 78.0258 147.82 67.5495 151.651 70.0821C152.588 70.7017 152.161 72.8492 150.903 75.4553C150.347 75.6312 149.768 75.7876 149.176 75.9117C150.019 74.3747 150.577 73.0803 150.742 72.1778C151.315 69.0336 144.006 75.66 138.786 82.7921C133.565 89.9254 130.433 96.3827 130.433 96.3827C130.433 96.3827 131.486 95.7849 133.127 94.456C134.841 93.0684 137.2 90.8945 139.762 88.2355C141.484 86.449 143.509 84.2027 145.406 81.6919C145.972 81.6632 146.526 81.6057 147.068 81.5195C144.952 84.3797 142.728 86.9893 140.841 88.9114C138.763 91.0256 136.506 93.3052 134.541 94.963C131.425 97.5955 129.019 99.0866 129.019 99.0866C129.019 99.0866 124.442 108.328 126.931 108.924C128.39 109.273 131.275 104.812 131.275 104.812C131.275 104.812 135.036 99.0418 137.304 96.4506C140.398 92.9132 143.063 90.8727 145.723 90.8278C147.276 90.8002 148.194 92.4614 148.194 92.4614L148.923 91.3279H153.42C153.42 91.3279 145.034 105.624 144.365 106.699ZM156.872 73.4286C153.712 75.4691 149.332 77.3165 145.128 76.9096C144.065 78.0178 142.925 79.2939 141.781 80.6906C149.078 82.1357 155.461 77.5982 158.859 73.7332C160.978 71.3214 162.025 69.1693 162.025 69.1693C162.025 69.1693 160.001 71.4076 156.872 73.4286ZM73.5479 94.0502C75.3667 91.5486 80.3786 82.7818 80.3786 82.7818C80.3786 82.7818 80.2962 82.1656 79.7109 82.1391C79.0168 82.1081 77.8681 82.3415 75.5614 85.2316C73.2535 88.1228 71.4806 90.4278 70.1795 92.8155C68.757 95.4274 68.1339 97.2702 68.9505 97.768C69.1807 97.9094 69.5289 97.9266 69.8095 97.8577C70.3456 97.7243 71.0408 97.1874 71.9983 96.0781C72.4461 95.5596 72.9535 94.8664 73.5479 94.0502ZM50.6115 82.2093C49.433 81.3137 46.4265 83.4106 46.4116 85.5512C46.3956 87.7469 49.126 88.3723 49.4776 88.3884C49.4776 88.3884 49.7869 88.4723 49.9094 88.2125C49.985 88.0504 50.3561 87.3629 50.7719 86.272C51.1865 85.1821 51.7122 83.045 50.6115 82.2093ZM48.8317 89.7679C48.7538 89.7403 47.6199 89.4127 46.5135 88.7034C45.4083 87.9929 44.8975 86.9399 44.8585 86.8663C44.8184 86.7927 44.7738 86.8491 44.7291 86.9111C44.6833 86.9732 44.4485 87.2779 42.8427 89.6437C41.237 92.0108 38.857 96.8552 41.0881 97.6841C42.5163 98.214 44.9112 95.6976 46.2077 94.0329C47.4115 92.4879 48.8431 90.1116 48.905 89.9702C48.9668 89.83 48.9107 89.7966 48.8317 89.7679ZM83.7528 91.2106H85.3184C85.3184 91.2106 77.4764 102.593 73.0428 102.079C70.5666 101.792 71.2996 98.7233 71.2996 98.7233C71.2996 98.7233 67.8178 102.81 64.6395 101.994C61.743 101.25 63.6076 96.4161 63.6076 96.4161C63.2789 96.5506 57.0151 103.645 52.6158 101.943C48.0105 100.163 50.3962 94.2249 51.2735 92.4419C52.0145 90.9359 52.8346 89.469 52.8346 89.469C52.8346 89.469 52.1268 89.6725 51.6893 89.7736C51.2518 89.8748 50.584 90.0047 50.584 90.0047C50.584 90.0047 48.4056 93.5593 47.0747 95.3343C45.745 97.1093 40.0871 103.211 36.7519 101.994C33.4178 100.778 34.239 96.0988 36.1128 92.3764C39.1491 86.3421 46.3566 78.9271 50.6963 80.0377C55.0806 81.1597 51.4533 88.3033 51.4533 88.3033C51.4533 88.3033 52.3272 88.4148 54.4174 86.9847C57.432 84.9223 61.3959 79.372 65.7001 80.0204C67.7205 80.3251 69.6034 82.407 67.031 86.3593C66.2052 87.6262 64.8239 88.7631 63.7633 87.6434C63.1071 86.9502 63.6786 85.6765 64.3704 84.8039C65.3462 83.5704 66.6942 83.7394 66.6942 83.7394C66.6942 83.7394 67.4009 82.1 65.5993 82.1334C64.1344 82.161 60.4316 85.5868 58.3414 89.0471C56.4218 92.2246 53.5195 97.6369 56.4378 98.8164C59.1156 99.8982 64.202 93.8306 66.5591 90.6519C68.9162 87.4744 74.2786 80.2653 78.7843 79.9698C80.334 79.8687 81.2605 81.2884 81.2605 81.2884L81.7828 80.4596H86.2782C86.2782 80.4596 77.7994 94.6802 77.1339 95.7573C76.6128 96.6023 75.9222 98.4957 77.8417 97.43C79.7613 96.3655 83.7528 91.2106 83.7528 91.2106ZM81.3075 113.995C77.9001 111.591 73.7495 110.53 69.9802 110.681C66.1685 110.834 64.4574 113.692 64.4574 113.692C62.7348 110.681 59.3343 108.834 54.0807 108.879C45.5961 108.979 37.1734 112.913 30.5041 112.913C24.104 112.913 19.4391 108.88 19.5925 101.712C19.8617 89.1483 30.4377 77.8235 38.3439 72.7239C42.8874 69.7935 46.6933 68.9244 49.1833 69.2026C50.9986 69.4061 53.1862 71.5099 51.8072 74.6115C49.7869 79.1582 46.99 78.7777 47.0908 76.6061C47.1492 75.1967 48.0861 74.3069 48.787 73.8217C49.2348 73.5114 50.0228 73.4217 50.4351 73.4136C50.8326 73.0745 51.1395 70.5891 47.8833 71.4087C44.626 72.2295 40.7101 75.4404 36.9718 79.5778C33.2334 83.7152 27.422 91.5613 25.9846 99.7878C25.318 103.606 25.767 110.56 34.7705 110.479C42.4052 110.411 53.6764 105.363 64.0279 105.453C68.0469 105.489 71.5436 106.574 74.2706 108.265C76.9564 109.931 80.1713 112.345 81.3075 113.995Z" fill="white"/>
<path d="M156.181 111.492C157.174 111.492 158.082 111.733 158.906 112.217C159.742 112.7 160.402 113.36 160.886 114.197C161.369 115.02 161.611 115.929 161.611 116.922C161.611 117.915 161.369 118.823 160.886 119.647C160.402 120.47 159.742 121.124 158.906 121.607C158.082 122.091 157.174 122.333 156.181 122.333C155.188 122.333 154.279 122.091 153.456 121.607C152.633 121.124 151.979 120.47 151.495 119.647C151.012 118.823 150.77 117.915 150.77 116.922C150.77 115.929 151.012 115.02 151.495 114.197C151.979 113.36 152.633 112.7 153.456 112.217C154.279 111.733 155.188 111.492 156.181 111.492ZM156.181 121.274C156.965 121.274 157.684 121.084 158.337 120.705C159.004 120.313 159.527 119.784 159.906 119.118C160.285 118.451 160.474 117.719 160.474 116.922C160.474 116.125 160.285 115.393 159.906 114.726C159.527 114.06 159.004 113.537 158.337 113.158C157.684 112.766 156.965 112.57 156.181 112.57C155.397 112.57 154.678 112.766 154.024 113.158C153.371 113.537 152.855 114.06 152.476 114.726C152.097 115.393 151.907 116.125 151.907 116.922C151.907 117.719 152.097 118.451 152.476 119.118C152.855 119.784 153.371 120.313 154.024 120.705C154.678 121.084 155.397 121.274 156.181 121.274ZM158.553 116C158.553 116.314 158.475 116.602 158.318 116.863C158.174 117.111 157.971 117.301 157.71 117.432L158.945 119.294H157.396L156.298 117.588H155.475V119.294H154.083V114.413H156.985C157.455 114.413 157.834 114.569 158.122 114.883C158.409 115.197 158.553 115.569 158.553 116ZM155.475 116.412H156.71C156.841 116.412 156.945 116.373 157.024 116.295C157.102 116.216 157.141 116.118 157.141 116C157.141 115.883 157.102 115.785 157.024 115.706C156.945 115.628 156.841 115.589 156.71 115.589H155.475V116.412Z" fill="white"/>
<path fill-rule="evenodd" clip-rule="evenodd" d="M55.8238 28.8862C55.8238 30.3899 54.4024 31.4349 51.7109 31.4349C49.789 31.4349 48.2268 30.8911 47.0654 29.899L48.0642 28.7115C48.9976 29.5725 50.2025 29.9749 51.7544 29.9749C53.2949 29.9749 54.0771 29.6818 54.0771 29.0495C54.0771 28.4172 53.2949 28.2436 51.5483 28.0907C49.3779 27.9056 47.3586 27.4262 47.3586 25.7927C47.3586 24.2016 49.0514 23.3302 51.3959 23.3302C53.0555 23.3302 54.4883 23.7441 55.455 24.4959L54.4998 25.7053C53.6637 25.0627 52.6329 24.8017 51.3959 24.7902C50.3651 24.7798 49.1064 24.9649 49.1064 25.6616C49.1064 26.3157 50.191 26.3801 51.6994 26.5008C54.1195 26.6962 55.8238 27.209 55.8238 28.8862Z" fill="white"/>
<mask id="mask0_105_7940" style="mask-type:alpha" maskUnits="userSpaceOnUse" x="0" y="0" width="176" height="176">
<path d="M0.654297 175.343H175.346V0H0.654297V175.343Z" fill="white"/>
</mask>
<g mask="url(#mask0_105_7940)">
<path fill-rule="evenodd" clip-rule="evenodd" d="M56.9119 31.1956H58.6482V23.5703H56.9119V31.1956Z" fill="white"/>
<path fill-rule="evenodd" clip-rule="evenodd" d="M69.014 23.5704V31.1958H67.4942L62.047 25.6834V31.1958H60.3645V23.5704H62.2096L67.3315 28.7988V23.5704H69.014Z" fill="white"/>
<path fill-rule="evenodd" clip-rule="evenodd" d="M78.5793 28.1671L77.0057 25.062L75.432 28.1671H78.5793ZM79.3066 29.5834H74.7162L73.9018 31.1951H72.0464L76.0734 23.5698H77.9723L81.9982 31.1951H80.121L79.3066 29.5834Z" fill="white"/>
<path fill-rule="evenodd" clip-rule="evenodd" d="M90.3588 24.7576L84.7043 29.7365H90.5317V31.1954H82.1216V30.0078L87.7761 25.0301H82.3174V23.5701H90.3588V24.7576Z" fill="white"/>
<path fill-rule="evenodd" clip-rule="evenodd" d="M95.9723 22.6987H94.67L96.2655 20.9456H98.4897L95.9723 22.6987ZM100.075 23.5701V27.6006C100.075 29.8883 98.5665 31.4357 95.8096 31.4357C93.0528 31.4357 91.5444 29.8883 91.5444 27.6006V23.5701H93.2808V27.4696C93.2808 28.9951 94.1707 29.9102 95.8096 29.9102C97.4486 29.9102 98.3385 28.9951 98.3385 27.4696V23.5701H100.075Z" fill="white"/>
<path fill-rule="evenodd" clip-rule="evenodd" d="M108.456 28.6903L110.04 29.4846C109.324 30.563 107.86 31.4355 105.874 31.4355C103.018 31.4355 101.163 29.9203 101.163 27.3832C101.163 24.8448 103.018 23.3308 105.949 23.3308C107.86 23.3308 109.324 24.2126 110.019 25.269L108.424 26.0646C107.881 25.215 107.057 24.8345 105.927 24.8345C104.126 24.8345 102.932 25.7047 102.932 27.3832C102.932 29.0604 104.126 29.9318 105.927 29.9318C107.057 29.9318 107.892 29.5617 108.456 28.6903Z" fill="white"/>
<path fill-rule="evenodd" clip-rule="evenodd" d="M116.36 28.1671L114.786 25.062L113.213 28.1671H116.36ZM117.087 29.5834H112.497L111.683 31.1951H109.827L113.854 23.5698H115.753L119.779 31.1951H117.902L117.087 29.5834Z" fill="white"/>
<path fill-rule="evenodd" clip-rule="evenodd" d="M125.632 27.1651C126.544 27.1651 127.216 26.9478 127.216 26.0971C127.216 25.2476 126.544 25.0303 125.632 25.0303H122.202V27.1651H125.632ZM127.141 31.1956L124.96 28.6021H122.214V31.1956H120.488V23.5703H125.73C127.586 23.5703 128.986 24.4314 128.986 26.0868C128.986 27.3824 128.128 28.1894 126.869 28.4826L129.214 31.1956H127.141Z" fill="white"/>
</g>
</g>
<defs>
<clipPath id="clip0_105_7940">
<rect width="176" height="176" rx="48" fill="white"/>
</clipPath>
</defs>
</svg>
