<?xml version="1.0" standalone="no"?>
<!DOCTYPE svg PUBLIC "-//W3C//DTD SVG 20010904//EN"
 "http://www.w3.org/TR/2001/REC-SVG-20010904/DTD/svg10.dtd">
<svg version="1.0" xmlns="http://www.w3.org/2000/svg"
 width="39.000000pt" height="36.000000pt" viewBox="0 0 39.000000 36.000000"
 preserveAspectRatio="xMidYMid meet">

<g transform="translate(0.000000,36.000000) scale(0.100000,-0.100000)"
fill="#000000" stroke="none">
<path d="M35 329 c-4 -6 2 -20 14 -32 15 -17 22 -42 27 -106 10 -116 16 -121
144 -121 123 0 132 7 150 109 18 99 16 101 -121 101 -90 0 -109 -3 -109 -15 0
-12 18 -15 99 -15 55 0 102 -3 104 -8 7 -10 -14 -114 -26 -129 -6 -9 -39 -13
-98 -13 -105 0 -103 -1 -113 115 -4 44 -12 85 -18 93 -19 22 -46 33 -53 21z"/>
<path d="M124 35 c-4 -9 -2 -21 4 -27 15 -15 44 -1 40 19 -4 23 -36 29 -44 8z"/>
<path d="M277 44 c-16 -16 -7 -44 14 -44 15 0 20 5 17 22 -3 22 -19 33 -31 22z"/>
</g>
</svg>
